<mxfile host="app.diagrams.net" modified="2022-08-07T15:32:53.927Z" agent="5.0 (Windows NT 10.0; Win64; x64) AppleWebKit/537.36 (KHTML, like Gecko) Chrome/104.0.0.0 Safari/537.36" etag="ldRZsd7JgcPCzexf_xEW" version="20.2.2" type="github">
  <diagram id="X7vXXypmLZaFSxF02kmT" name="Page-1">
    <mxGraphModel dx="716" dy="1323" grid="0" gridSize="10" guides="1" tooltips="1" connect="1" arrows="1" fold="1" page="1" pageScale="1" pageWidth="827" pageHeight="1169" math="0" shadow="0">
      <root>
        <mxCell id="0" />
        <mxCell id="1" parent="0" />
        <mxCell id="R4BH2pFyw8LySe582Bv0-2" style="edgeStyle=orthogonalEdgeStyle;rounded=0;orthogonalLoop=1;jettySize=auto;html=1;endSize=5;startSize=5;dashed=1;strokeColor=#66FFFF;" edge="1" parent="1" source="R4BH2pFyw8LySe582Bv0-3" target="R4BH2pFyw8LySe582Bv0-22">
          <mxGeometry relative="1" as="geometry">
            <Array as="points">
              <mxPoint x="2327" y="413" />
              <mxPoint x="2327" y="413" />
            </Array>
          </mxGeometry>
        </mxCell>
        <mxCell id="R4BH2pFyw8LySe582Bv0-3" value="&lt;b&gt;FeuilleTemp&lt;/b&gt;" style="swimlane;fontStyle=0;align=center;verticalAlign=middle;childLayout=stackLayout;horizontal=1;startSize=29;horizontalStack=0;resizeParent=1;resizeParentMax=0;resizeLast=0;collapsible=0;marginBottom=0;html=1;fontSize=12;labelPosition=center;verticalLabelPosition=middle;container=0;swimlaneLine=1;rounded=0;shadow=0;glass=0;sketch=0;perimeterSpacing=0;strokeColor=#66FFFF;" vertex="1" parent="1">
          <mxGeometry x="2355" y="80" width="151" height="347" as="geometry" />
        </mxCell>
        <mxCell id="R4BH2pFyw8LySe582Bv0-4" value="- id: UUID" style="text;strokeColor=none;fillColor=none;align=left;verticalAlign=top;spacingLeft=4;spacingRight=4;overflow=hidden;rotatable=0;points=[[0,0.5],[1,0.5]];portConstraint=eastwest;container=0;fontStyle=0" vertex="1" parent="R4BH2pFyw8LySe582Bv0-3">
          <mxGeometry y="29" width="151" height="26" as="geometry" />
        </mxCell>
        <mxCell id="R4BH2pFyw8LySe582Bv0-6" value="- accord: UUID" style="text;strokeColor=none;fillColor=none;align=left;verticalAlign=top;spacingLeft=4;spacingRight=4;overflow=hidden;rotatable=0;points=[[0,0.5],[1,0.5]];portConstraint=eastwest;container=0;fontStyle=0" vertex="1" parent="R4BH2pFyw8LySe582Bv0-3">
          <mxGeometry y="55" width="151" height="26" as="geometry" />
        </mxCell>
        <mxCell id="R4BH2pFyw8LySe582Bv0-7" value="- employee: UUID" style="text;strokeColor=none;fillColor=none;align=left;verticalAlign=top;spacingLeft=4;spacingRight=4;overflow=hidden;rotatable=0;points=[[0,0.5],[1,0.5]];portConstraint=eastwest;container=0;fontStyle=0" vertex="1" parent="R4BH2pFyw8LySe582Bv0-3">
          <mxGeometry y="81" width="151" height="26" as="geometry" />
        </mxCell>
        <mxCell id="R4BH2pFyw8LySe582Bv0-8" value="- sommaire: String " style="text;strokeColor=none;fillColor=none;align=left;verticalAlign=top;spacingLeft=4;spacingRight=4;overflow=hidden;rotatable=0;points=[[0,0.5],[1,0.5]];portConstraint=eastwest;container=0;fontStyle=0" vertex="1" parent="R4BH2pFyw8LySe582Bv0-3">
          <mxGeometry y="107" width="151" height="26" as="geometry" />
        </mxCell>
        <mxCell id="R4BH2pFyw8LySe582Bv0-9" value="- heures: Float" style="text;strokeColor=none;fillColor=none;align=left;verticalAlign=top;spacingLeft=4;spacingRight=4;overflow=hidden;rotatable=0;points=[[0,0.5],[1,0.5]];portConstraint=eastwest;container=0;fontStyle=0" vertex="1" parent="R4BH2pFyw8LySe582Bv0-3">
          <mxGeometry y="133" width="151" height="26" as="geometry" />
        </mxCell>
        <mxCell id="R4BH2pFyw8LySe582Bv0-10" value="- annee: int" style="text;strokeColor=none;fillColor=none;align=left;verticalAlign=top;spacingLeft=4;spacingRight=4;overflow=hidden;rotatable=0;points=[[0,0.5],[1,0.5]];portConstraint=eastwest;container=0;fontStyle=0" vertex="1" parent="R4BH2pFyw8LySe582Bv0-3">
          <mxGeometry y="159" width="151" height="26" as="geometry" />
        </mxCell>
        <mxCell id="R4BH2pFyw8LySe582Bv0-11" value="- mois: int" style="text;strokeColor=none;fillColor=none;align=left;verticalAlign=top;spacingLeft=4;spacingRight=4;overflow=hidden;rotatable=0;points=[[0,0.5],[1,0.5]];portConstraint=eastwest;container=0;fontStyle=0" vertex="1" parent="R4BH2pFyw8LySe582Bv0-3">
          <mxGeometry y="185" width="151" height="26" as="geometry" />
        </mxCell>
        <mxCell id="R4BH2pFyw8LySe582Bv0-13" value="- jour: int" style="text;strokeColor=none;fillColor=none;align=left;verticalAlign=top;spacingLeft=4;spacingRight=4;overflow=hidden;rotatable=0;points=[[0,0.5],[1,0.5]];portConstraint=eastwest;container=0;fontStyle=0" vertex="1" parent="R4BH2pFyw8LySe582Bv0-3">
          <mxGeometry y="211" width="151" height="26" as="geometry" />
        </mxCell>
        <mxCell id="R4BH2pFyw8LySe582Bv0-14" value="- CoûthoraireHeure: Float" style="text;strokeColor=none;fillColor=none;align=left;verticalAlign=top;spacingLeft=4;spacingRight=4;overflow=hidden;rotatable=0;points=[[0,0.5],[1,0.5]];portConstraint=eastwest;container=0;fontStyle=0" vertex="1" parent="R4BH2pFyw8LySe582Bv0-3">
          <mxGeometry y="237" width="151" height="26" as="geometry" />
        </mxCell>
        <mxCell id="R4BH2pFyw8LySe582Bv0-16" value="&lt;span style=&quot;text-align: left; text-indent: 0px; background-color: rgb(248, 249, 250); display: inline; float: none;&quot;&gt;&lt;font face=&quot;helvetica&quot;&gt;- valide: Boolean&lt;/font&gt;&lt;/span&gt;" style="text;whiteSpace=wrap;html=1;" vertex="1" parent="R4BH2pFyw8LySe582Bv0-3">
          <mxGeometry y="263" width="151" height="28" as="geometry" />
        </mxCell>
        <mxCell id="R4BH2pFyw8LySe582Bv0-17" value="&lt;span style=&quot;text-align: left ; text-indent: 0px ; background-color: rgb(248 , 249 , 250) ; display: inline ; float: none&quot;&gt;&lt;font face=&quot;helvetica&quot;&gt;- dateValidation: LocalDate&lt;/font&gt;&lt;/span&gt;" style="text;whiteSpace=wrap;html=1;" vertex="1" parent="R4BH2pFyw8LySe582Bv0-3">
          <mxGeometry y="291" width="151" height="28" as="geometry" />
        </mxCell>
        <mxCell id="R4BH2pFyw8LySe582Bv0-18" value="&lt;span style=&quot;text-align: left ; text-indent: 0px ; background-color: rgb(248 , 249 , 250) ; display: inline ; float: none&quot;&gt;&lt;font face=&quot;helvetica&quot;&gt;-&amp;nbsp;&lt;/font&gt;jiraIssueKey&lt;font face=&quot;helvetica&quot;&gt;: String&lt;/font&gt;&lt;/span&gt;" style="text;whiteSpace=wrap;html=1;" vertex="1" parent="R4BH2pFyw8LySe582Bv0-3">
          <mxGeometry y="319" width="151" height="28" as="geometry" />
        </mxCell>
        <mxCell id="R4BH2pFyw8LySe582Bv0-19" value="&lt;b&gt;&amp;lt;&amp;lt;enum&amp;gt;&amp;gt;&lt;/b&gt;&lt;br&gt;&lt;div style=&quot;&quot;&gt;&lt;span&gt;&lt;b&gt;Type&lt;/b&gt;&lt;/span&gt;&lt;/div&gt;" style="swimlane;fontStyle=0;align=center;verticalAlign=middle;childLayout=stackLayout;horizontal=1;startSize=29;horizontalStack=0;resizeParent=1;resizeParentMax=0;resizeLast=0;collapsible=0;marginBottom=0;html=1;fontSize=12;labelPosition=center;verticalLabelPosition=middle;container=0;swimlaneLine=1;rounded=0;sketch=0;glass=0;strokeColor=#66FFFF;" vertex="1" parent="1">
          <mxGeometry x="2163" y="263" width="150" height="81" as="geometry" />
        </mxCell>
        <mxCell id="R4BH2pFyw8LySe582Bv0-20" value="HABITUEL" style="text;strokeColor=none;fillColor=none;align=left;verticalAlign=top;spacingLeft=4;spacingRight=4;overflow=hidden;rotatable=0;points=[[0,0.5],[1,0.5]];portConstraint=eastwest;container=0;fontStyle=0" vertex="1" parent="R4BH2pFyw8LySe582Bv0-19">
          <mxGeometry y="29" width="150" height="26" as="geometry" />
        </mxCell>
        <mxCell id="R4BH2pFyw8LySe582Bv0-21" value="PROLONGATION" style="text;strokeColor=none;fillColor=none;align=left;verticalAlign=top;spacingLeft=4;spacingRight=4;overflow=hidden;rotatable=0;points=[[0,0.5],[1,0.5]];portConstraint=eastwest;container=0;fontStyle=0" vertex="1" parent="R4BH2pFyw8LySe582Bv0-19">
          <mxGeometry y="55" width="150" height="26" as="geometry" />
        </mxCell>
        <mxCell id="R4BH2pFyw8LySe582Bv0-22" value="&lt;b&gt;&amp;lt;&amp;lt;enum&amp;gt;&amp;gt;&lt;/b&gt;&lt;br&gt;&lt;div style=&quot;text-align: left&quot;&gt;&lt;b&gt;Location&lt;/b&gt;&lt;br&gt;&lt;/div&gt;" style="swimlane;fontStyle=0;align=center;verticalAlign=middle;childLayout=stackLayout;horizontal=1;startSize=29;horizontalStack=0;resizeParent=1;resizeParentMax=0;resizeLast=0;collapsible=0;marginBottom=0;html=1;fontSize=12;labelPosition=center;verticalLabelPosition=middle;container=0;swimlaneLine=1;rounded=0;sketch=0;glass=0;strokeColor=#66FFFF;" vertex="1" parent="1">
          <mxGeometry x="2163" y="376" width="150" height="81" as="geometry" />
        </mxCell>
        <mxCell id="R4BH2pFyw8LySe582Bv0-23" value="BUREAU" style="text;strokeColor=none;fillColor=none;align=left;verticalAlign=top;spacingLeft=4;spacingRight=4;overflow=hidden;rotatable=0;points=[[0,0.5],[1,0.5]];portConstraint=eastwest;container=0;fontStyle=0" vertex="1" parent="R4BH2pFyw8LySe582Bv0-22">
          <mxGeometry y="29" width="150" height="26" as="geometry" />
        </mxCell>
        <mxCell id="R4BH2pFyw8LySe582Bv0-24" value="A_DISTANCE" style="text;strokeColor=none;fillColor=none;align=left;verticalAlign=top;spacingLeft=4;spacingRight=4;overflow=hidden;rotatable=0;points=[[0,0.5],[1,0.5]];portConstraint=eastwest;container=0;fontStyle=0" vertex="1" parent="R4BH2pFyw8LySe582Bv0-22">
          <mxGeometry y="55" width="150" height="26" as="geometry" />
        </mxCell>
        <mxCell id="R4BH2pFyw8LySe582Bv0-25" value="&lt;b&gt;Commentaire&lt;/b&gt;" style="swimlane;fontStyle=0;align=center;verticalAlign=middle;childLayout=stackLayout;horizontal=1;startSize=29;horizontalStack=0;resizeParent=1;resizeParentMax=0;resizeLast=0;collapsible=0;marginBottom=0;html=1;fontSize=12;labelPosition=center;verticalLabelPosition=middle;container=0;swimlaneLine=1;rounded=0;shadow=0;glass=0;sketch=0;perimeterSpacing=0;strokeColor=#66FFFF;" vertex="1" parent="1">
          <mxGeometry x="2574" y="231" width="130" height="133" as="geometry" />
        </mxCell>
        <mxCell id="R4BH2pFyw8LySe582Bv0-26" value="- id: UUID" style="text;strokeColor=none;fillColor=none;align=left;verticalAlign=top;spacingLeft=4;spacingRight=4;overflow=hidden;rotatable=0;points=[[0,0.5],[1,0.5]];portConstraint=eastwest;container=0;fontStyle=0" vertex="1" parent="R4BH2pFyw8LySe582Bv0-25">
          <mxGeometry y="29" width="130" height="26" as="geometry" />
        </mxCell>
        <mxCell id="R4BH2pFyw8LySe582Bv0-27" value="- commentaire: String " style="text;strokeColor=none;fillColor=none;align=left;verticalAlign=top;spacingLeft=4;spacingRight=4;overflow=hidden;rotatable=0;points=[[0,0.5],[1,0.5]];portConstraint=eastwest;container=0;fontStyle=0" vertex="1" parent="R4BH2pFyw8LySe582Bv0-25">
          <mxGeometry y="55" width="130" height="26" as="geometry" />
        </mxCell>
        <mxCell id="R4BH2pFyw8LySe582Bv0-28" value="- utilisateur: UUID" style="text;strokeColor=none;fillColor=none;align=left;verticalAlign=top;spacingLeft=4;spacingRight=4;overflow=hidden;rotatable=0;points=[[0,0.5],[1,0.5]];portConstraint=eastwest;container=0;fontStyle=0" vertex="1" parent="R4BH2pFyw8LySe582Bv0-25">
          <mxGeometry y="81" width="130" height="26" as="geometry" />
        </mxCell>
        <mxCell id="R4BH2pFyw8LySe582Bv0-29" value="- date: LocalDate" style="text;strokeColor=none;fillColor=none;align=left;verticalAlign=top;spacingLeft=4;spacingRight=4;overflow=hidden;rotatable=0;points=[[0,0.5],[1,0.5]];portConstraint=eastwest;container=0;fontStyle=0" vertex="1" parent="R4BH2pFyw8LySe582Bv0-25">
          <mxGeometry y="107" width="130" height="26" as="geometry" />
        </mxCell>
        <mxCell id="R4BH2pFyw8LySe582Bv0-30" style="edgeStyle=orthogonalEdgeStyle;rounded=0;orthogonalLoop=1;jettySize=auto;html=1;startArrow=none;startFill=0;endArrow=none;endFill=0;startSize=5;endSize=5;strokeColor=#66FFFF;" edge="1" parent="1" source="R4BH2pFyw8LySe582Bv0-3" target="R4BH2pFyw8LySe582Bv0-25">
          <mxGeometry relative="1" as="geometry">
            <mxPoint x="2208.857195172991" y="130" as="targetPoint" />
            <Array as="points">
              <mxPoint x="2542" y="300" />
              <mxPoint x="2542" y="300" />
            </Array>
          </mxGeometry>
        </mxCell>
        <mxCell id="R4BH2pFyw8LySe582Bv0-31" value="*" style="edgeLabel;html=1;align=center;verticalAlign=middle;resizable=0;points=[];" vertex="1" connectable="0" parent="R4BH2pFyw8LySe582Bv0-30">
          <mxGeometry x="0.7821" y="3" relative="1" as="geometry">
            <mxPoint y="3" as="offset" />
          </mxGeometry>
        </mxCell>
        <mxCell id="R4BH2pFyw8LySe582Bv0-32" value="1" style="edgeLabel;html=1;align=center;verticalAlign=middle;resizable=0;points=[];" vertex="1" connectable="0" parent="R4BH2pFyw8LySe582Bv0-30">
          <mxGeometry x="-0.8475" y="-1" relative="1" as="geometry">
            <mxPoint y="-2" as="offset" />
          </mxGeometry>
        </mxCell>
        <mxCell id="R4BH2pFyw8LySe582Bv0-33" value="&lt;b&gt;Formation&lt;/b&gt;" style="swimlane;fontStyle=0;align=center;verticalAlign=middle;childLayout=stackLayout;horizontal=1;startSize=29;horizontalStack=0;resizeParent=1;resizeParentMax=0;resizeLast=0;collapsible=0;marginBottom=0;html=1;fontSize=12;labelPosition=center;verticalLabelPosition=middle;container=0;swimlaneLine=1;rounded=0;shadow=0;glass=0;sketch=0;perimeterSpacing=0;strokeColor=#66FFFF;" vertex="1" parent="1">
          <mxGeometry x="1689" y="521" width="137" height="161" as="geometry" />
        </mxCell>
        <mxCell id="R4BH2pFyw8LySe582Bv0-34" value="- formation: UUID" style="text;strokeColor=none;fillColor=none;align=left;verticalAlign=top;spacingLeft=4;spacingRight=4;overflow=hidden;rotatable=0;points=[[0,0.5],[1,0.5]];portConstraint=eastwest;container=0;fontStyle=0" vertex="1" parent="R4BH2pFyw8LySe582Bv0-33">
          <mxGeometry y="29" width="137" height="26" as="geometry" />
        </mxCell>
        <mxCell id="R4BH2pFyw8LySe582Bv0-35" value="- nomFormation: String " style="text;strokeColor=none;fillColor=none;align=left;verticalAlign=top;spacingLeft=4;spacingRight=4;overflow=hidden;rotatable=0;points=[[0,0.5],[1,0.5]];portConstraint=eastwest;container=0;fontStyle=0" vertex="1" parent="R4BH2pFyw8LySe582Bv0-33">
          <mxGeometry y="55" width="137" height="26" as="geometry" />
        </mxCell>
        <mxCell id="R4BH2pFyw8LySe582Bv0-36" value="- categorie: UUID" style="text;strokeColor=none;fillColor=none;align=left;verticalAlign=top;spacingLeft=4;spacingRight=4;overflow=hidden;rotatable=0;points=[[0,0.5],[1,0.5]];portConstraint=eastwest;container=0;fontStyle=0" vertex="1" parent="R4BH2pFyw8LySe582Bv0-33">
          <mxGeometry y="81" width="137" height="26" as="geometry" />
        </mxCell>
        <mxCell id="R4BH2pFyw8LySe582Bv0-37" value="- nomCategorie: String" style="text;strokeColor=none;fillColor=none;align=left;verticalAlign=top;spacingLeft=4;spacingRight=4;overflow=hidden;rotatable=0;points=[[0,0.5],[1,0.5]];portConstraint=eastwest;container=0;fontStyle=0" vertex="1" parent="R4BH2pFyw8LySe582Bv0-33">
          <mxGeometry y="107" width="137" height="26" as="geometry" />
        </mxCell>
        <mxCell id="R4BH2pFyw8LySe582Bv0-38" value="&lt;span style=&quot;color: rgb(0 , 0 , 0) ; font-family: &amp;#34;helvetica&amp;#34; ; font-size: 12px ; font-style: normal ; font-weight: 400 ; letter-spacing: normal ; text-align: left ; text-indent: 0px ; text-transform: none ; word-spacing: 0px ; background-color: rgb(248 , 249 , 250) ; display: inline ; float: none&quot;&gt;-&amp;nbsp;&lt;span style=&quot;font-family: &amp;#34;helvetica&amp;#34;&quot;&gt;isTrainer&lt;/span&gt;: Boolean&lt;/span&gt;" style="text;whiteSpace=wrap;html=1;" vertex="1" parent="R4BH2pFyw8LySe582Bv0-33">
          <mxGeometry y="133" width="137" height="28" as="geometry" />
        </mxCell>
        <mxCell id="R4BH2pFyw8LySe582Bv0-39" value="&lt;b&gt;&amp;lt;&amp;lt;enum&amp;gt;&amp;gt;&lt;/b&gt;&lt;br&gt;&lt;div style=&quot;text-align: left&quot;&gt;&lt;b&gt;Location&lt;/b&gt;&lt;br&gt;&lt;/div&gt;" style="swimlane;fontStyle=0;align=center;verticalAlign=middle;childLayout=stackLayout;horizontal=1;startSize=29;horizontalStack=0;resizeParent=1;resizeParentMax=0;resizeLast=0;collapsible=0;marginBottom=0;html=1;fontSize=12;labelPosition=center;verticalLabelPosition=middle;container=0;swimlaneLine=1;rounded=0;sketch=0;glass=0;strokeColor=#66FFFF;" vertex="1" parent="1">
          <mxGeometry x="1675" y="729" width="151" height="81" as="geometry" />
        </mxCell>
        <mxCell id="R4BH2pFyw8LySe582Bv0-40" value="SELF_LEARNING" style="text;strokeColor=none;fillColor=none;align=left;verticalAlign=top;spacingLeft=4;spacingRight=4;overflow=hidden;rotatable=0;points=[[0,0.5],[1,0.5]];portConstraint=eastwest;container=0;fontStyle=0" vertex="1" parent="R4BH2pFyw8LySe582Bv0-39">
          <mxGeometry y="29" width="151" height="26" as="geometry" />
        </mxCell>
        <mxCell id="R4BH2pFyw8LySe582Bv0-41" value="SUPERVISED_TRAINING" style="text;strokeColor=none;fillColor=none;align=left;verticalAlign=top;spacingLeft=4;spacingRight=4;overflow=hidden;rotatable=0;points=[[0,0.5],[1,0.5]];portConstraint=eastwest;container=0;fontStyle=0" vertex="1" parent="R4BH2pFyw8LySe582Bv0-39">
          <mxGeometry y="55" width="151" height="26" as="geometry" />
        </mxCell>
        <mxCell id="R4BH2pFyw8LySe582Bv0-42" style="edgeStyle=orthogonalEdgeStyle;rounded=0;orthogonalLoop=1;jettySize=auto;html=1;startArrow=none;startFill=0;endArrow=classic;endFill=1;startSize=5;endSize=5;dashed=1;strokeColor=#66FFFF;" edge="1" parent="1" source="R4BH2pFyw8LySe582Bv0-33" target="R4BH2pFyw8LySe582Bv0-39">
          <mxGeometry relative="1" as="geometry">
            <Array as="points">
              <mxPoint x="1758" y="717" />
              <mxPoint x="1758" y="717" />
            </Array>
            <mxPoint x="1765" y="687.4999999999995" as="sourcePoint" />
            <mxPoint x="1765" y="721.5" as="targetPoint" />
          </mxGeometry>
        </mxCell>
        <mxCell id="R4BH2pFyw8LySe582Bv0-43" style="edgeStyle=orthogonalEdgeStyle;rounded=0;orthogonalLoop=1;jettySize=auto;html=1;startArrow=none;startFill=0;endArrow=block;endFill=0;startSize=5;endSize=5;strokeColor=#66FFFF;" edge="1" parent="1">
          <mxGeometry relative="1" as="geometry">
            <Array as="points">
              <mxPoint x="1951" y="482" />
              <mxPoint x="2428" y="482" />
            </Array>
            <mxPoint x="1951.0044843049327" y="521" as="sourcePoint" />
            <mxPoint x="2428" y="427" as="targetPoint" />
          </mxGeometry>
        </mxCell>
        <mxCell id="R4BH2pFyw8LySe582Bv0-44" value="&lt;b&gt;PrixFixe&lt;/b&gt;" style="swimlane;fontStyle=0;align=center;verticalAlign=middle;childLayout=stackLayout;horizontal=1;startSize=29;horizontalStack=0;resizeParent=1;resizeParentMax=0;resizeLast=0;collapsible=0;marginBottom=0;html=1;fontSize=12;labelPosition=center;verticalLabelPosition=middle;container=0;swimlaneLine=1;rounded=0;shadow=0;glass=0;sketch=0;perimeterSpacing=0;strokeColor=#66FFFF;" vertex="1" parent="1">
          <mxGeometry x="1863" y="521" width="180" height="315" as="geometry" />
        </mxCell>
        <mxCell id="R4BH2pFyw8LySe582Bv0-45" value="- iteration: UUID" style="text;strokeColor=none;fillColor=none;align=left;verticalAlign=top;spacingLeft=4;spacingRight=4;overflow=hidden;rotatable=0;points=[[0,0.5],[1,0.5]];portConstraint=eastwest;container=0;fontStyle=0" vertex="1" parent="R4BH2pFyw8LySe582Bv0-44">
          <mxGeometry y="29" width="180" height="26" as="geometry" />
        </mxCell>
        <mxCell id="R4BH2pFyw8LySe582Bv0-46" value="-iterationSommaire: String " style="text;strokeColor=none;fillColor=none;align=left;verticalAlign=top;spacingLeft=4;spacingRight=4;overflow=hidden;rotatable=0;points=[[0,0.5],[1,0.5]];portConstraint=eastwest;container=0;fontStyle=0" vertex="1" parent="R4BH2pFyw8LySe582Bv0-44">
          <mxGeometry y="55" width="180" height="26" as="geometry" />
        </mxCell>
        <mxCell id="R4BH2pFyw8LySe582Bv0-127" value="- categorie: UUID" style="text;strokeColor=none;fillColor=none;align=left;verticalAlign=top;spacingLeft=4;spacingRight=4;overflow=hidden;rotatable=0;points=[[0,0.5],[1,0.5]];portConstraint=eastwest;container=0;fontStyle=0" vertex="1" parent="R4BH2pFyw8LySe582Bv0-44">
          <mxGeometry y="81" width="180" height="26" as="geometry" />
        </mxCell>
        <mxCell id="R4BH2pFyw8LySe582Bv0-48" value="- nomCategorie: String" style="text;strokeColor=none;fillColor=none;align=left;verticalAlign=top;spacingLeft=4;spacingRight=4;overflow=hidden;rotatable=0;points=[[0,0.5],[1,0.5]];portConstraint=eastwest;container=0;fontStyle=0" vertex="1" parent="R4BH2pFyw8LySe582Bv0-44">
          <mxGeometry y="107" width="180" height="26" as="geometry" />
        </mxCell>
        <mxCell id="R4BH2pFyw8LySe582Bv0-49" value="- tacheSommaire: String" style="text;strokeColor=none;fillColor=none;align=left;verticalAlign=top;spacingLeft=4;spacingRight=4;overflow=hidden;rotatable=0;points=[[0,0.5],[1,0.5]];portConstraint=eastwest;container=0;fontStyle=0" vertex="1" parent="R4BH2pFyw8LySe582Bv0-44">
          <mxGeometry y="133" width="180" height="26" as="geometry" />
        </mxCell>
        <mxCell id="R4BH2pFyw8LySe582Bv0-51" value="- clientOrder: UUID" style="text;strokeColor=none;fillColor=none;align=left;verticalAlign=top;spacingLeft=4;spacingRight=4;overflow=hidden;rotatable=0;points=[[0,0.5],[1,0.5]];portConstraint=eastwest;container=0;fontStyle=0" vertex="1" parent="R4BH2pFyw8LySe582Bv0-44">
          <mxGeometry y="159" width="180" height="26" as="geometry" />
        </mxCell>
        <mxCell id="R4BH2pFyw8LySe582Bv0-52" value="- clientOrderSummary: String" style="text;strokeColor=none;fillColor=none;align=left;verticalAlign=top;spacingLeft=4;spacingRight=4;overflow=hidden;rotatable=0;points=[[0,0.5],[1,0.5]];portConstraint=eastwest;container=0;fontStyle=0" vertex="1" parent="R4BH2pFyw8LySe582Bv0-44">
          <mxGeometry y="185" width="180" height="26" as="geometry" />
        </mxCell>
        <mxCell id="R4BH2pFyw8LySe582Bv0-53" value="- internalOrder: UUID" style="text;strokeColor=none;fillColor=none;align=left;verticalAlign=top;spacingLeft=4;spacingRight=4;overflow=hidden;rotatable=0;points=[[0,0.5],[1,0.5]];portConstraint=eastwest;container=0;fontStyle=0" vertex="1" parent="R4BH2pFyw8LySe582Bv0-44">
          <mxGeometry y="211" width="180" height="26" as="geometry" />
        </mxCell>
        <mxCell id="R4BH2pFyw8LySe582Bv0-54" value="- internalOrderSummary: UUID" style="text;strokeColor=none;fillColor=none;align=left;verticalAlign=top;spacingLeft=4;spacingRight=4;overflow=hidden;rotatable=0;points=[[0,0.5],[1,0.5]];portConstraint=eastwest;container=0;fontStyle=0" vertex="1" parent="R4BH2pFyw8LySe582Bv0-44">
          <mxGeometry y="237" width="180" height="26" as="geometry" />
        </mxCell>
        <mxCell id="R4BH2pFyw8LySe582Bv0-55" value="- budget: UUID" style="text;strokeColor=none;fillColor=none;align=left;verticalAlign=top;spacingLeft=4;spacingRight=4;overflow=hidden;rotatable=0;points=[[0,0.5],[1,0.5]];portConstraint=eastwest;container=0;fontStyle=0" vertex="1" parent="R4BH2pFyw8LySe582Bv0-44">
          <mxGeometry y="263" width="180" height="26" as="geometry" />
        </mxCell>
        <mxCell id="R4BH2pFyw8LySe582Bv0-56" value="- prixUnitaire: Float" style="text;strokeColor=none;fillColor=none;align=left;verticalAlign=top;spacingLeft=4;spacingRight=4;overflow=hidden;rotatable=0;points=[[0,0.5],[1,0.5]];portConstraint=eastwest;container=0;fontStyle=0" vertex="1" parent="R4BH2pFyw8LySe582Bv0-44">
          <mxGeometry y="289" width="180" height="26" as="geometry" />
        </mxCell>
        <mxCell id="R4BH2pFyw8LySe582Bv0-57" style="edgeStyle=orthogonalEdgeStyle;rounded=0;orthogonalLoop=1;jettySize=auto;html=1;startArrow=none;startFill=0;endArrow=block;endFill=0;startSize=5;endSize=5;strokeColor=#66FFFF;" edge="1" parent="1">
          <mxGeometry relative="1" as="geometry">
            <mxPoint x="2428.5" y="427.00000000000006" as="targetPoint" />
            <Array as="points">
              <mxPoint x="2282.5" y="482" />
              <mxPoint x="2428.5" y="482" />
            </Array>
            <mxPoint x="2281.9977578475336" y="521" as="sourcePoint" />
          </mxGeometry>
        </mxCell>
        <mxCell id="R4BH2pFyw8LySe582Bv0-58" value="&lt;div style=&quot;text-align: left;&quot;&gt;&lt;span style=&quot;background-color: initial;&quot;&gt;&lt;b&gt;Vacance&lt;/b&gt;&lt;/span&gt;&lt;/div&gt;" style="swimlane;fontStyle=0;align=center;verticalAlign=middle;childLayout=stackLayout;horizontal=1;startSize=29;horizontalStack=0;resizeParent=1;resizeParentMax=0;resizeLast=0;collapsible=0;marginBottom=0;html=1;fontSize=12;labelPosition=center;verticalLabelPosition=middle;container=0;swimlaneLine=1;rounded=0;shadow=0;glass=0;sketch=0;perimeterSpacing=0;strokeColor=#66FFFF;" vertex="1" parent="1">
          <mxGeometry x="2065" y="521" width="137" height="55" as="geometry" />
        </mxCell>
        <mxCell id="R4BH2pFyw8LySe582Bv0-59" value="-valanceId: UUID" style="text;strokeColor=none;fillColor=none;align=left;verticalAlign=top;spacingLeft=4;spacingRight=4;overflow=hidden;rotatable=0;points=[[0,0.5],[1,0.5]];portConstraint=eastwest;container=0;fontStyle=0" vertex="1" parent="R4BH2pFyw8LySe582Bv0-58">
          <mxGeometry y="29" width="137" height="26" as="geometry" />
        </mxCell>
        <mxCell id="R4BH2pFyw8LySe582Bv0-60" value="&lt;div style=&quot;&quot;&gt;&lt;b&gt;Conge&lt;/b&gt;&lt;br&gt;&lt;/div&gt;" style="swimlane;fontStyle=0;align=center;verticalAlign=middle;childLayout=stackLayout;horizontal=1;startSize=29;horizontalStack=0;resizeParent=1;resizeParentMax=0;resizeLast=0;collapsible=0;marginBottom=0;html=1;fontSize=12;labelPosition=center;verticalLabelPosition=middle;container=0;swimlaneLine=1;rounded=0;shadow=0;glass=0;sketch=0;perimeterSpacing=0;strokeColor=#66FFFF;" vertex="1" parent="1">
          <mxGeometry x="2223" y="521" width="137" height="107" as="geometry" />
        </mxCell>
        <mxCell id="R4BH2pFyw8LySe582Bv0-62" value="-type: String" style="text;strokeColor=none;fillColor=none;align=left;verticalAlign=top;spacingLeft=4;spacingRight=4;overflow=hidden;rotatable=0;points=[[0,0.5],[1,0.5]];portConstraint=eastwest;container=0;fontStyle=0" vertex="1" parent="R4BH2pFyw8LySe582Bv0-60">
          <mxGeometry y="29" width="137" height="26" as="geometry" />
        </mxCell>
        <mxCell id="R4BH2pFyw8LySe582Bv0-64" value="-raison: String" style="text;strokeColor=none;fillColor=none;align=left;verticalAlign=top;spacingLeft=4;spacingRight=4;overflow=hidden;rotatable=0;points=[[0,0.5],[1,0.5]];portConstraint=eastwest;container=0;fontStyle=0" vertex="1" parent="R4BH2pFyw8LySe582Bv0-60">
          <mxGeometry y="55" width="137" height="26" as="geometry" />
        </mxCell>
        <mxCell id="R4BH2pFyw8LySe582Bv0-66" value="-categorie: String" style="text;strokeColor=none;fillColor=none;align=left;verticalAlign=top;spacingLeft=4;spacingRight=4;overflow=hidden;rotatable=0;points=[[0,0.5],[1,0.5]];portConstraint=eastwest;container=0;fontStyle=0" vertex="1" parent="R4BH2pFyw8LySe582Bv0-60">
          <mxGeometry y="81" width="137" height="26" as="geometry" />
        </mxCell>
        <mxCell id="R4BH2pFyw8LySe582Bv0-67" style="edgeStyle=orthogonalEdgeStyle;rounded=0;orthogonalLoop=1;jettySize=auto;html=1;endSize=5;startSize=5;endArrow=block;endFill=0;strokeColor=#66FFFF;" edge="1" parent="1" source="R4BH2pFyw8LySe582Bv0-68" target="R4BH2pFyw8LySe582Bv0-3">
          <mxGeometry relative="1" as="geometry">
            <Array as="points">
              <mxPoint x="2428" y="467" />
              <mxPoint x="2428" y="467" />
            </Array>
            <mxPoint x="2438" y="636.0000000000005" as="sourcePoint" />
            <mxPoint x="2438" y="507" as="targetPoint" />
          </mxGeometry>
        </mxCell>
        <mxCell id="R4BH2pFyw8LySe582Bv0-68" value="&lt;div style=&quot;text-align: left&quot;&gt;&lt;b&gt;AutreAcivite&lt;/b&gt;&lt;br&gt;&lt;/div&gt;" style="swimlane;fontStyle=0;align=center;verticalAlign=middle;childLayout=stackLayout;horizontal=1;startSize=29;horizontalStack=0;resizeParent=1;resizeParentMax=0;resizeLast=0;collapsible=0;marginBottom=0;html=1;fontSize=12;labelPosition=center;verticalLabelPosition=middle;container=0;swimlaneLine=1;rounded=0;shadow=0;glass=0;sketch=0;perimeterSpacing=0;strokeColor=#66FFFF;" vertex="1" parent="1">
          <mxGeometry x="2379" y="521" width="137" height="55" as="geometry" />
        </mxCell>
        <mxCell id="R4BH2pFyw8LySe582Bv0-70" value="-category: String" style="text;strokeColor=none;fillColor=none;align=left;verticalAlign=top;spacingLeft=4;spacingRight=4;overflow=hidden;rotatable=0;points=[[0,0.5],[1,0.5]];portConstraint=eastwest;container=0;fontStyle=0" vertex="1" parent="R4BH2pFyw8LySe582Bv0-68">
          <mxGeometry y="29" width="137" height="26" as="geometry" />
        </mxCell>
        <mxCell id="R4BH2pFyw8LySe582Bv0-71" style="edgeStyle=orthogonalEdgeStyle;rounded=0;orthogonalLoop=1;jettySize=auto;html=1;endArrow=block;startArrow=none;startFill=0;endFill=0;startSize=5;endSize=5;strokeColor=#66FFFF;" edge="1" parent="1" source="R4BH2pFyw8LySe582Bv0-72" target="R4BH2pFyw8LySe582Bv0-3">
          <mxGeometry relative="1" as="geometry">
            <Array as="points">
              <mxPoint x="2629" y="482" />
              <mxPoint x="2428" y="482" />
            </Array>
          </mxGeometry>
        </mxCell>
        <mxCell id="R4BH2pFyw8LySe582Bv0-72" value="&lt;b&gt;TempsEtMateriel&lt;/b&gt;" style="swimlane;fontStyle=0;align=center;verticalAlign=middle;childLayout=stackLayout;horizontal=1;startSize=29;horizontalStack=0;resizeParent=1;resizeParentMax=0;resizeLast=0;collapsible=0;marginBottom=0;html=1;fontSize=12;labelPosition=center;verticalLabelPosition=middle;container=0;swimlaneLine=1;rounded=0;shadow=0;glass=0;sketch=0;perimeterSpacing=0;strokeColor=#66FFFF;" vertex="1" parent="1">
          <mxGeometry x="2539" y="521" width="180" height="237" as="geometry" />
        </mxCell>
        <mxCell id="R4BH2pFyw8LySe582Bv0-73" value="- iteration: UUID" style="text;strokeColor=none;fillColor=none;align=left;verticalAlign=top;spacingLeft=4;spacingRight=4;overflow=hidden;rotatable=0;points=[[0,0.5],[1,0.5]];portConstraint=eastwest;container=0;fontStyle=0" vertex="1" parent="R4BH2pFyw8LySe582Bv0-72">
          <mxGeometry y="29" width="180" height="26" as="geometry" />
        </mxCell>
        <mxCell id="R4BH2pFyw8LySe582Bv0-74" value="-iterationSommaire: String " style="text;strokeColor=none;fillColor=none;align=left;verticalAlign=top;spacingLeft=4;spacingRight=4;overflow=hidden;rotatable=0;points=[[0,0.5],[1,0.5]];portConstraint=eastwest;container=0;fontStyle=0" vertex="1" parent="R4BH2pFyw8LySe582Bv0-72">
          <mxGeometry y="55" width="180" height="26" as="geometry" />
        </mxCell>
        <mxCell id="R4BH2pFyw8LySe582Bv0-76" value="- tacheSommaire: String" style="text;strokeColor=none;fillColor=none;align=left;verticalAlign=top;spacingLeft=4;spacingRight=4;overflow=hidden;rotatable=0;points=[[0,0.5],[1,0.5]];portConstraint=eastwest;container=0;fontStyle=0" vertex="1" parent="R4BH2pFyw8LySe582Bv0-72">
          <mxGeometry y="81" width="180" height="26" as="geometry" />
        </mxCell>
        <mxCell id="R4BH2pFyw8LySe582Bv0-78" value="- clientOrder: UUID" style="text;strokeColor=none;fillColor=none;align=left;verticalAlign=top;spacingLeft=4;spacingRight=4;overflow=hidden;rotatable=0;points=[[0,0.5],[1,0.5]];portConstraint=eastwest;container=0;fontStyle=0" vertex="1" parent="R4BH2pFyw8LySe582Bv0-72">
          <mxGeometry y="107" width="180" height="26" as="geometry" />
        </mxCell>
        <mxCell id="R4BH2pFyw8LySe582Bv0-79" value="- clientOrderSummary: String" style="text;strokeColor=none;fillColor=none;align=left;verticalAlign=top;spacingLeft=4;spacingRight=4;overflow=hidden;rotatable=0;points=[[0,0.5],[1,0.5]];portConstraint=eastwest;container=0;fontStyle=0" vertex="1" parent="R4BH2pFyw8LySe582Bv0-72">
          <mxGeometry y="133" width="180" height="26" as="geometry" />
        </mxCell>
        <mxCell id="R4BH2pFyw8LySe582Bv0-80" value="- internalOrder: UUID" style="text;strokeColor=none;fillColor=none;align=left;verticalAlign=top;spacingLeft=4;spacingRight=4;overflow=hidden;rotatable=0;points=[[0,0.5],[1,0.5]];portConstraint=eastwest;container=0;fontStyle=0" vertex="1" parent="R4BH2pFyw8LySe582Bv0-72">
          <mxGeometry y="159" width="180" height="26" as="geometry" />
        </mxCell>
        <mxCell id="R4BH2pFyw8LySe582Bv0-81" value="- internalOrderSummary: UUID" style="text;strokeColor=none;fillColor=none;align=left;verticalAlign=top;spacingLeft=4;spacingRight=4;overflow=hidden;rotatable=0;points=[[0,0.5],[1,0.5]];portConstraint=eastwest;container=0;fontStyle=0" vertex="1" parent="R4BH2pFyw8LySe582Bv0-72">
          <mxGeometry y="185" width="180" height="26" as="geometry" />
        </mxCell>
        <mxCell id="R4BH2pFyw8LySe582Bv0-83" value="- prixUnitaire: Float" style="text;strokeColor=none;fillColor=none;align=left;verticalAlign=top;spacingLeft=4;spacingRight=4;overflow=hidden;rotatable=0;points=[[0,0.5],[1,0.5]];portConstraint=eastwest;container=0;fontStyle=0" vertex="1" parent="R4BH2pFyw8LySe582Bv0-72">
          <mxGeometry y="211" width="180" height="26" as="geometry" />
        </mxCell>
        <mxCell id="R4BH2pFyw8LySe582Bv0-84" style="edgeStyle=orthogonalEdgeStyle;rounded=0;orthogonalLoop=1;jettySize=auto;html=1;endArrow=block;startArrow=none;startFill=0;endFill=0;startSize=5;endSize=5;strokeColor=#66FFFF;" edge="1" parent="1">
          <mxGeometry relative="1" as="geometry">
            <mxPoint x="2802" y="521" as="sourcePoint" />
            <mxPoint x="2428" y="427.00000000000006" as="targetPoint" />
            <Array as="points">
              <mxPoint x="2802" y="482" />
              <mxPoint x="2428" y="482" />
            </Array>
          </mxGeometry>
        </mxCell>
        <mxCell id="R4BH2pFyw8LySe582Bv0-85" value="&lt;div style=&quot;text-align: left&quot;&gt;&lt;b&gt;PresalesEntry&lt;/b&gt;&lt;br&gt;&lt;/div&gt;" style="swimlane;fontStyle=0;align=center;verticalAlign=middle;childLayout=stackLayout;horizontal=1;startSize=29;horizontalStack=0;resizeParent=1;resizeParentMax=0;resizeLast=0;collapsible=0;marginBottom=0;html=1;fontSize=12;labelPosition=center;verticalLabelPosition=middle;container=0;swimlaneLine=1;rounded=0;shadow=0;glass=0;sketch=0;perimeterSpacing=0;strokeColor=#66FFFF;" vertex="1" parent="1">
          <mxGeometry x="2742.49" y="521" width="146.51" height="237" as="geometry" />
        </mxCell>
        <mxCell id="R4BH2pFyw8LySe582Bv0-86" value="- tacheSommaire: String" style="text;strokeColor=none;fillColor=none;align=left;verticalAlign=top;spacingLeft=4;spacingRight=4;overflow=hidden;rotatable=0;points=[[0,0.5],[1,0.5]];portConstraint=eastwest;container=0;fontStyle=0" vertex="1" parent="R4BH2pFyw8LySe582Bv0-85">
          <mxGeometry y="29" width="146.51" height="26" as="geometry" />
        </mxCell>
        <mxCell id="R4BH2pFyw8LySe582Bv0-88" value="- dirigeant: UUID" style="text;strokeColor=none;fillColor=none;align=left;verticalAlign=top;spacingLeft=4;spacingRight=4;overflow=hidden;rotatable=0;points=[[0,0.5],[1,0.5]];portConstraint=eastwest;container=0;fontStyle=0" vertex="1" parent="R4BH2pFyw8LySe582Bv0-85">
          <mxGeometry y="55" width="146.51" height="26" as="geometry" />
        </mxCell>
        <mxCell id="R4BH2pFyw8LySe582Bv0-89" value="- nomDirigeant: String" style="text;strokeColor=none;fillColor=none;align=left;verticalAlign=top;spacingLeft=4;spacingRight=4;overflow=hidden;rotatable=0;points=[[0,0.5],[1,0.5]];portConstraint=eastwest;container=0;fontStyle=0" vertex="1" parent="R4BH2pFyw8LySe582Bv0-85">
          <mxGeometry y="81" width="146.51" height="26" as="geometry" />
        </mxCell>
        <mxCell id="R4BH2pFyw8LySe582Bv0-91" value="-statutAccord: String" style="text;strokeColor=none;fillColor=none;align=left;verticalAlign=top;spacingLeft=4;spacingRight=4;overflow=hidden;rotatable=0;points=[[0,0.5],[1,0.5]];portConstraint=eastwest;container=0;fontStyle=0" vertex="1" parent="R4BH2pFyw8LySe582Bv0-85">
          <mxGeometry y="107" width="146.51" height="26" as="geometry" />
        </mxCell>
        <mxCell id="R4BH2pFyw8LySe582Bv0-92" value="- isClient: Boolean" style="text;strokeColor=none;fillColor=none;align=left;verticalAlign=top;spacingLeft=4;spacingRight=4;overflow=hidden;rotatable=0;points=[[0,0.5],[1,0.5]];portConstraint=eastwest;container=0;fontStyle=0" vertex="1" parent="R4BH2pFyw8LySe582Bv0-85">
          <mxGeometry y="133" width="146.51" height="26" as="geometry" />
        </mxCell>
        <mxCell id="R4BH2pFyw8LySe582Bv0-93" value="- sommaireAccord: String" style="text;strokeColor=none;fillColor=none;align=left;verticalAlign=top;spacingLeft=4;spacingRight=4;overflow=hidden;rotatable=0;points=[[0,0.5],[1,0.5]];portConstraint=eastwest;container=0;fontStyle=0" vertex="1" parent="R4BH2pFyw8LySe582Bv0-85">
          <mxGeometry y="159" width="146.51" height="26" as="geometry" />
        </mxCell>
        <mxCell id="R4BH2pFyw8LySe582Bv0-94" value="-demandeur: UUID" style="text;strokeColor=none;fillColor=none;align=left;verticalAlign=top;spacingLeft=4;spacingRight=4;overflow=hidden;rotatable=0;points=[[0,0.5],[1,0.5]];portConstraint=eastwest;container=0;fontStyle=0" vertex="1" parent="R4BH2pFyw8LySe582Bv0-85">
          <mxGeometry y="185" width="146.51" height="26" as="geometry" />
        </mxCell>
        <mxCell id="R4BH2pFyw8LySe582Bv0-95" value="- nomDemandeur: String" style="text;strokeColor=none;fillColor=none;align=left;verticalAlign=top;spacingLeft=4;spacingRight=4;overflow=hidden;rotatable=0;points=[[0,0.5],[1,0.5]];portConstraint=eastwest;container=0;fontStyle=0" vertex="1" parent="R4BH2pFyw8LySe582Bv0-85">
          <mxGeometry y="211" width="146.51" height="26" as="geometry" />
        </mxCell>
        <mxCell id="R4BH2pFyw8LySe582Bv0-96" style="edgeStyle=orthogonalEdgeStyle;rounded=0;orthogonalLoop=1;jettySize=auto;html=1;endArrow=block;startArrow=none;startFill=0;endFill=0;startSize=5;endSize=5;strokeColor=#66FFFF;" edge="1" parent="1">
          <mxGeometry relative="1" as="geometry">
            <mxPoint x="2992" y="521" as="sourcePoint" />
            <mxPoint x="2428" y="427.00000000000006" as="targetPoint" />
            <Array as="points">
              <mxPoint x="2992" y="482" />
              <mxPoint x="2428" y="482" />
            </Array>
          </mxGeometry>
        </mxCell>
        <mxCell id="R4BH2pFyw8LySe582Bv0-97" value="&lt;b&gt;AvantVente&lt;/b&gt;" style="swimlane;fontStyle=0;align=center;verticalAlign=middle;childLayout=stackLayout;horizontal=1;startSize=29;horizontalStack=0;resizeParent=1;resizeParentMax=0;resizeLast=0;collapsible=0;marginBottom=0;html=1;fontSize=12;labelPosition=center;verticalLabelPosition=middle;container=0;swimlaneLine=1;rounded=0;shadow=0;glass=0;sketch=0;perimeterSpacing=0;strokeColor=#66FFFF;" vertex="1" parent="1">
          <mxGeometry x="2912" y="521" width="180" height="289" as="geometry" />
        </mxCell>
        <mxCell id="R4BH2pFyw8LySe582Bv0-98" value="- iteration: UUID" style="text;strokeColor=none;fillColor=none;align=left;verticalAlign=top;spacingLeft=4;spacingRight=4;overflow=hidden;rotatable=0;points=[[0,0.5],[1,0.5]];portConstraint=eastwest;container=0;fontStyle=0" vertex="1" parent="R4BH2pFyw8LySe582Bv0-97">
          <mxGeometry y="29" width="180" height="26" as="geometry" />
        </mxCell>
        <mxCell id="R4BH2pFyw8LySe582Bv0-99" value="-iterationSommaire: String " style="text;strokeColor=none;fillColor=none;align=left;verticalAlign=top;spacingLeft=4;spacingRight=4;overflow=hidden;rotatable=0;points=[[0,0.5],[1,0.5]];portConstraint=eastwest;container=0;fontStyle=0" vertex="1" parent="R4BH2pFyw8LySe582Bv0-97">
          <mxGeometry y="55" width="180" height="26" as="geometry" />
        </mxCell>
        <mxCell id="R4BH2pFyw8LySe582Bv0-101" value="- tacheSommaire: String" style="text;strokeColor=none;fillColor=none;align=left;verticalAlign=top;spacingLeft=4;spacingRight=4;overflow=hidden;rotatable=0;points=[[0,0.5],[1,0.5]];portConstraint=eastwest;container=0;fontStyle=0" vertex="1" parent="R4BH2pFyw8LySe582Bv0-97">
          <mxGeometry y="81" width="180" height="26" as="geometry" />
        </mxCell>
        <mxCell id="R4BH2pFyw8LySe582Bv0-103" value="- clientOrder: UUID" style="text;strokeColor=none;fillColor=none;align=left;verticalAlign=top;spacingLeft=4;spacingRight=4;overflow=hidden;rotatable=0;points=[[0,0.5],[1,0.5]];portConstraint=eastwest;container=0;fontStyle=0" vertex="1" parent="R4BH2pFyw8LySe582Bv0-97">
          <mxGeometry y="107" width="180" height="26" as="geometry" />
        </mxCell>
        <mxCell id="R4BH2pFyw8LySe582Bv0-104" value="- clientOrderSummary: String" style="text;strokeColor=none;fillColor=none;align=left;verticalAlign=top;spacingLeft=4;spacingRight=4;overflow=hidden;rotatable=0;points=[[0,0.5],[1,0.5]];portConstraint=eastwest;container=0;fontStyle=0" vertex="1" parent="R4BH2pFyw8LySe582Bv0-97">
          <mxGeometry y="133" width="180" height="26" as="geometry" />
        </mxCell>
        <mxCell id="R4BH2pFyw8LySe582Bv0-105" value="- internalOrder: UUID" style="text;strokeColor=none;fillColor=none;align=left;verticalAlign=top;spacingLeft=4;spacingRight=4;overflow=hidden;rotatable=0;points=[[0,0.5],[1,0.5]];portConstraint=eastwest;container=0;fontStyle=0" vertex="1" parent="R4BH2pFyw8LySe582Bv0-97">
          <mxGeometry y="159" width="180" height="26" as="geometry" />
        </mxCell>
        <mxCell id="R4BH2pFyw8LySe582Bv0-106" value="- internalOrderSummary: UUID" style="text;strokeColor=none;fillColor=none;align=left;verticalAlign=top;spacingLeft=4;spacingRight=4;overflow=hidden;rotatable=0;points=[[0,0.5],[1,0.5]];portConstraint=eastwest;container=0;fontStyle=0" vertex="1" parent="R4BH2pFyw8LySe582Bv0-97">
          <mxGeometry y="185" width="180" height="26" as="geometry" />
        </mxCell>
        <mxCell id="R4BH2pFyw8LySe582Bv0-107" value="- produit: UUID" style="text;strokeColor=none;fillColor=none;align=left;verticalAlign=top;spacingLeft=4;spacingRight=4;overflow=hidden;rotatable=0;points=[[0,0.5],[1,0.5]];portConstraint=eastwest;container=0;fontStyle=0" vertex="1" parent="R4BH2pFyw8LySe582Bv0-97">
          <mxGeometry y="211" width="180" height="26" as="geometry" />
        </mxCell>
        <mxCell id="R4BH2pFyw8LySe582Bv0-108" value="- nomProduit: String" style="text;strokeColor=none;fillColor=none;align=left;verticalAlign=top;spacingLeft=4;spacingRight=4;overflow=hidden;rotatable=0;points=[[0,0.5],[1,0.5]];portConstraint=eastwest;container=0;fontStyle=0" vertex="1" parent="R4BH2pFyw8LySe582Bv0-97">
          <mxGeometry y="237" width="180" height="26" as="geometry" />
        </mxCell>
        <mxCell id="R4BH2pFyw8LySe582Bv0-109" value="- license: UUID" style="text;strokeColor=none;fillColor=none;align=left;verticalAlign=top;spacingLeft=4;spacingRight=4;overflow=hidden;rotatable=0;points=[[0,0.5],[1,0.5]];portConstraint=eastwest;container=0;fontStyle=0" vertex="1" parent="R4BH2pFyw8LySe582Bv0-97">
          <mxGeometry y="263" width="180" height="26" as="geometry" />
        </mxCell>
        <mxCell id="R4BH2pFyw8LySe582Bv0-111" style="edgeStyle=orthogonalEdgeStyle;rounded=0;orthogonalLoop=1;jettySize=auto;html=1;startArrow=none;startFill=0;endArrow=block;endFill=0;startSize=5;endSize=5;strokeColor=#66FFFF;" edge="1" parent="1">
          <mxGeometry relative="1" as="geometry">
            <Array as="points">
              <mxPoint x="3204" y="482" />
              <mxPoint x="2428" y="482" />
            </Array>
            <mxPoint x="3204" y="521" as="sourcePoint" />
            <mxPoint x="2428" y="427.00000000000006" as="targetPoint" />
          </mxGeometry>
        </mxCell>
        <mxCell id="R4BH2pFyw8LySe582Bv0-112" value="&lt;b&gt;ProgrammeDeSoutien&lt;/b&gt;" style="swimlane;fontStyle=0;align=center;verticalAlign=middle;childLayout=stackLayout;horizontal=1;startSize=29;horizontalStack=0;resizeParent=1;resizeParentMax=0;resizeLast=0;collapsible=0;marginBottom=0;html=1;fontSize=12;labelPosition=center;verticalLabelPosition=middle;container=0;swimlaneLine=1;rounded=0;shadow=0;glass=0;sketch=0;perimeterSpacing=0;strokeColor=#66FFFF;" vertex="1" parent="1">
          <mxGeometry x="3124" y="521" width="180" height="237" as="geometry" />
        </mxCell>
        <mxCell id="R4BH2pFyw8LySe582Bv0-113" value="- iteration: UUID" style="text;strokeColor=none;fillColor=none;align=left;verticalAlign=top;spacingLeft=4;spacingRight=4;overflow=hidden;rotatable=0;points=[[0,0.5],[1,0.5]];portConstraint=eastwest;container=0;fontStyle=0" vertex="1" parent="R4BH2pFyw8LySe582Bv0-112">
          <mxGeometry y="29" width="180" height="26" as="geometry" />
        </mxCell>
        <mxCell id="R4BH2pFyw8LySe582Bv0-114" value="-iterationSommaire: String " style="text;strokeColor=none;fillColor=none;align=left;verticalAlign=top;spacingLeft=4;spacingRight=4;overflow=hidden;rotatable=0;points=[[0,0.5],[1,0.5]];portConstraint=eastwest;container=0;fontStyle=0" vertex="1" parent="R4BH2pFyw8LySe582Bv0-112">
          <mxGeometry y="55" width="180" height="26" as="geometry" />
        </mxCell>
        <mxCell id="R4BH2pFyw8LySe582Bv0-116" value="- tacheSommaire: String" style="text;strokeColor=none;fillColor=none;align=left;verticalAlign=top;spacingLeft=4;spacingRight=4;overflow=hidden;rotatable=0;points=[[0,0.5],[1,0.5]];portConstraint=eastwest;container=0;fontStyle=0" vertex="1" parent="R4BH2pFyw8LySe582Bv0-112">
          <mxGeometry y="81" width="180" height="26" as="geometry" />
        </mxCell>
        <mxCell id="R4BH2pFyw8LySe582Bv0-119" value="- clientOrder: UUID" style="text;strokeColor=none;fillColor=none;align=left;verticalAlign=top;spacingLeft=4;spacingRight=4;overflow=hidden;rotatable=0;points=[[0,0.5],[1,0.5]];portConstraint=eastwest;container=0;fontStyle=0" vertex="1" parent="R4BH2pFyw8LySe582Bv0-112">
          <mxGeometry y="107" width="180" height="26" as="geometry" />
        </mxCell>
        <mxCell id="R4BH2pFyw8LySe582Bv0-120" value="- clientOrderSummary: String" style="text;strokeColor=none;fillColor=none;align=left;verticalAlign=top;spacingLeft=4;spacingRight=4;overflow=hidden;rotatable=0;points=[[0,0.5],[1,0.5]];portConstraint=eastwest;container=0;fontStyle=0" vertex="1" parent="R4BH2pFyw8LySe582Bv0-112">
          <mxGeometry y="133" width="180" height="26" as="geometry" />
        </mxCell>
        <mxCell id="R4BH2pFyw8LySe582Bv0-121" value="- internalOrder: UUID" style="text;strokeColor=none;fillColor=none;align=left;verticalAlign=top;spacingLeft=4;spacingRight=4;overflow=hidden;rotatable=0;points=[[0,0.5],[1,0.5]];portConstraint=eastwest;container=0;fontStyle=0" vertex="1" parent="R4BH2pFyw8LySe582Bv0-112">
          <mxGeometry y="159" width="180" height="26" as="geometry" />
        </mxCell>
        <mxCell id="R4BH2pFyw8LySe582Bv0-122" value="- internalOrderSummary: UUID" style="text;strokeColor=none;fillColor=none;align=left;verticalAlign=top;spacingLeft=4;spacingRight=4;overflow=hidden;rotatable=0;points=[[0,0.5],[1,0.5]];portConstraint=eastwest;container=0;fontStyle=0" vertex="1" parent="R4BH2pFyw8LySe582Bv0-112">
          <mxGeometry y="185" width="180" height="26" as="geometry" />
        </mxCell>
        <mxCell id="R4BH2pFyw8LySe582Bv0-123" value="- prixUnitaire: Float" style="text;strokeColor=none;fillColor=none;align=left;verticalAlign=top;spacingLeft=4;spacingRight=4;overflow=hidden;rotatable=0;points=[[0,0.5],[1,0.5]];portConstraint=eastwest;container=0;fontStyle=0" vertex="1" parent="R4BH2pFyw8LySe582Bv0-112">
          <mxGeometry y="211" width="180" height="26" as="geometry" />
        </mxCell>
        <mxCell id="R4BH2pFyw8LySe582Bv0-124" style="edgeStyle=orthogonalEdgeStyle;rounded=0;orthogonalLoop=1;jettySize=auto;html=1;dashed=1;startArrow=none;startFill=0;endArrow=classic;endFill=1;startSize=5;endSize=5;strokeColor=#66FFFF;" edge="1" parent="1" source="R4BH2pFyw8LySe582Bv0-3" target="R4BH2pFyw8LySe582Bv0-19">
          <mxGeometry relative="1" as="geometry">
            <Array as="points">
              <mxPoint x="2321" y="305" />
              <mxPoint x="2321" y="305" />
            </Array>
          </mxGeometry>
        </mxCell>
        <mxCell id="R4BH2pFyw8LySe582Bv0-125" style="edgeStyle=orthogonalEdgeStyle;rounded=0;orthogonalLoop=1;jettySize=auto;html=1;startArrow=none;startFill=0;endArrow=block;endFill=0;startSize=5;endSize=5;strokeColor=#66FFFF;" edge="1" parent="1">
          <mxGeometry relative="1" as="geometry">
            <Array as="points">
              <mxPoint x="2114" y="482" />
              <mxPoint x="2428" y="482" />
            </Array>
            <mxPoint x="2114" y="521" as="sourcePoint" />
            <mxPoint x="2428" y="427.00000000000006" as="targetPoint" />
          </mxGeometry>
        </mxCell>
        <mxCell id="R4BH2pFyw8LySe582Bv0-126" style="edgeStyle=orthogonalEdgeStyle;rounded=0;orthogonalLoop=1;jettySize=auto;html=1;startArrow=none;startFill=0;endArrow=block;endFill=0;startSize=5;endSize=5;strokeColor=#66FFFF;" edge="1" parent="1">
          <mxGeometry relative="1" as="geometry">
            <Array as="points">
              <mxPoint x="1748.5" y="482" />
              <mxPoint x="2428.5" y="482" />
            </Array>
            <mxPoint x="1747.9977578475336" y="521" as="sourcePoint" />
            <mxPoint x="2428.5" y="427.00000000000006" as="targetPoint" />
          </mxGeometry>
        </mxCell>
      </root>
    </mxGraphModel>
  </diagram>
</mxfile>
